<svg xmlns="http://www.w3.org/2000/svg" viewBox="0 0 155.68 155.75"><defs><style>.cls-1{fill:#f1c40f;}.cls-2{fill:#2c3e50;}.cls-3{fill:#f39c12;}</style></defs><title>Element 1</title><g id="Ebene_2" data-name="Ebene 2"><g id="Ebene_1-2" data-name="Ebene 1"><circle class="cls-1" cx="77.84" cy="77.87" r="26.7"/><path class="cls-2" d="M22.51,155.75c-6.9,0-12.58-1.9-16.6-5.92C-10.47,133.45,8.29,89,48.62,48.68c18.88-18.88,39.52-33.81,58.12-42,19.54-8.64,34.82-8.88,43-.68,16.39,16.39-2.37,60.82-42.7,101.15C76.6,137.59,43.8,155.75,22.51,155.75ZM133.08,6.41c-6.44,0-14.54,2-23.75,6.12-17.9,7.91-37.85,22.36-56.18,40.7C12.84,93.53-1.48,133.38,10.45,145.3s51.77-2.39,92.08-42.7h0c40.31-40.31,54.63-80.16,42.7-92.08C142.49,7.77,138.33,6.41,133.08,6.41Z"/><path class="cls-2" d="M133.1,155.75c-7.41,0-16.32-2.22-26.36-6.66-18.6-8.22-39.24-23.15-58.12-42C8.28,66.73-10.47,22.3,5.92,5.92s60.82,2.37,101.15,42.7,59.09,84.76,42.7,101.15C145.78,153.76,140.11,155.75,133.1,155.75ZM22.59,6.38c-5.28,0-9.43,1.35-12.15,4.07-11.92,11.92,2.39,51.77,42.7,92.08,18.33,18.33,38.29,32.79,56.18,40.7,16.71,7.39,29.8,8.12,35.9,2,11.92-11.92-2.39-51.77-42.7-92.08C71.39,22,40.52,6.38,22.59,6.38Z"/><path class="cls-3" d="M77.84,51.18v6A20.66,20.66,0,1,1,57.41,80.9h7.92a12.9,12.9,0,0,0,12.51,9.86h3V86.08h8.58V80H80.86V75.72h8.58v-6H80.86V65h-3a12.9,12.9,0,0,0-12.51,9.87H51.14v3a26.7,26.7,0,1,0,26.7-26.69Zm0,0"/></g></g></svg>